<svg xmlns="http://www.w3.org/2000/svg" viewBox="0 0 16 16">
  <path fill="#139c45" d="M6 12.5a.5.5 0 0 1 .5-.5h3a.5.5 0 0 1 0 1h-3a.5.5 0 0 1-.5-.5ZM3 8.062C3 6.76 4.235 5.765 5.53 5.889a28.02 28.02 0 0 1 4.94 0C11.765 5.765 13 6.76 13 8.062v1.157a.933.933 0 0 1-.765.935c-.845.147-2.34.346-4.235.346-1.895 0-3.39-.2-4.235-.346A.933.933 0 0 1 3 9.219V8.062Zm4.542-.827a.25.25 0 0 0-.217.068l-.92.9a2.478 2.478 0 0 1-1.871.718.25.25 0 1 0 0 .5 3.025 3.025 0 0 0 2.229-.869l.95-.929a.25.25 0 0 0-.17-.428Zm3.829.471a.25.25 0 0 0-.217-.068l-.92.9a2.478 2.478 0 0 1-1.871.718.25.25 0 1 0 0 .5 3.025 3.025 0 0 0 2.229-.869l.95-.929a.25.25 0 0 0-.17-.428Z"/>
  <path fill="#139c45" d="M11 5.393V4.5a3 3 0 0 0-6 0v.893A4.004 4.004 0 0 0 2 9.219v-1.157A2.5 2.5 0 0 1 4.5 5.5h7A2.5 2.5 0 0 1 14 8.062v1.157A4.004 4.004 0 0 0 11 5.393ZM6 4.5a2 2 0 1 1 4 0v.516c-.66.02-1.32.05-1.95.093A30.957 30.957 0 0 0 6 5.016V4.5Z"/>
  <circle cx="8" cy="2.5" r="1.5" fill="#139c45"/>
</svg>
